<svg xmlns="http://www.w3.org/2000/svg" xmlns:xlink="http://www.w3.org/1999/xlink" viewBox="0 0 32 32" id="ship"><defs><linearGradient id="a" x1="16.8" x2="16.8" y1="18.5" y2="4.56" gradientUnits="userSpaceOnUse"><stop offset="0" stop-color="#0b8099"></stop><stop offset=".46" stop-color="#094180"></stop><stop offset="1" stop-color="#081266"></stop></linearGradient><linearGradient id="b" x1="16.76" x2="16.76" y1="19.53" y2="13.55" gradientUnits="userSpaceOnUse"><stop offset="0" stop-color="#e4f1f6"></stop><stop offset=".5" stop-color="#c2d5e6"></stop><stop offset="1" stop-color="#a4c3dc"></stop></linearGradient><linearGradient id="e" x1="14.32" x2="14.32" y1="24.22" y2="15.24" xlink:href="#a"></linearGradient><linearGradient id="f" x1="16.8" x2="16.8" y1="13.61" y2="9.27" gradientUnits="userSpaceOnUse"><stop offset="0" stop-color="#0cebeb"></stop><stop offset=".4" stop-color="#05affa"></stop><stop offset=".98" stop-color="#1c52bd"></stop></linearGradient><linearGradient id="g" x1="16.84" x2="16.84" y1="11.97" y2="8.23" gradientUnits="userSpaceOnUse"><stop offset=".02" stop-color="#0cebeb"></stop><stop offset=".43" stop-color="#05affa"></stop><stop offset=".98" stop-color="#1c52bd"></stop></linearGradient><linearGradient id="h" x1="16" x2="16" y1="28.55" y2="14.74" xlink:href="#a"></linearGradient><linearGradient id="d" x1="446.88" x2="446.88" y1="20.05" y2="14.97" gradientTransform="matrix(-1 0 0 1 454.1 0)" gradientUnits="userSpaceOnUse"><stop offset="0" stop-color="#0b8099"></stop><stop offset=".46" stop-color="#094180"></stop><stop offset=".94" stop-color="#081266"></stop></linearGradient><linearGradient id="i" x1="444.69" x2="444.69" y1="21.18" y2="15.99" gradientTransform="matrix(-1 0 0 1 454.1 0)" xlink:href="#a"></linearGradient><linearGradient id="j" x1="16.8" x2="16.8" y1="23.27" y2="14.96" xlink:href="#b"></linearGradient><linearGradient id="c" x1="16.51" x2="16.51" y1="19.38" y2="13.65" gradientUnits="userSpaceOnUse"><stop offset=".02" stop-color="#0b8099"></stop><stop offset=".29" stop-color="#0a5f8c"></stop><stop offset=".51" stop-color="#094180"></stop><stop offset="1" stop-color="#081266"></stop></linearGradient><linearGradient id="k" x1="14.54" x2="14.54" y1="19.38" y2="13.65" xlink:href="#c"></linearGradient><linearGradient id="l" x1="9.66" x2="9.66" y1="20.21" y2="15.33" xlink:href="#c"></linearGradient><linearGradient id="m" x1="26.35" x2="26.35" y1="22.19" y2="19.44" gradientUnits="userSpaceOnUse"><stop offset="0" stop-color="#63a28f"></stop><stop offset=".3" stop-color="#207c7a"></stop><stop offset=".71" stop-color="#105861"></stop></linearGradient><linearGradient id="n" x1="194.46" x2="194.46" y1="22.02" y2="16.93" gradientTransform="translate(-165.73)" xlink:href="#d"></linearGradient><linearGradient id="o" x1="192.27" x2="192.27" y1="23.15" y2="17.96" gradientTransform="translate(-165.73)" xlink:href="#a"></linearGradient><linearGradient id="p" x1="262.09" x2="262.09" y1="22.17" y2="17.3" gradientTransform="matrix(-1 0 0 1 288.36 0)" xlink:href="#c"></linearGradient><linearGradient id="q" x1="19.42" x2="19.42" y1="19.08" y2="15.12" xlink:href="#c"></linearGradient></defs><path fill="url(#a)" fill-rule="evenodd" d="M16.8 6.92a.46.46 0 0 0-.47.47v7.85a.47.47 0 1 0 .94 0V7.39a.51.51 0 0 0-.47-.47Z"></path><path fill="url(#b)" fill-rule="evenodd" d="M14.28 16.68v-1.5a.53.53 0 0 1 .55-.47h3.94a.51.51 0 0 1 .47.47v1.5Z"></path><path fill="url(#e)" fill-rule="evenodd" d="m23.18 21.24-.71-2.07H6.41l-.95 2.07h17.72z"></path><path fill="url(#f)" fill-rule="evenodd" d="M14.83 11.3a.48.48 0 0 0 0 .95h3.94a.48.48 0 0 0 0-.95Z"></path><path fill="url(#g)" fill-rule="evenodd" d="M14.36 8.36a.46.46 0 0 0-.47.47v1.5h5.9v-1.5a.51.51 0 0 0-1 0v.56h-3.96v-.56a.51.51 0 0 0-.47-.47Z"></path><path fill="url(#h)" fill-rule="evenodd" d="m2 21.14.94 3.7c0 .16.16.24.32.24h21.07a5.26 5.26 0 0 0 4.33-2.21L30 21.14Z"></path><path fill="url(#d)" d="M6.04 17.21h2.33v.94H6.04z"></path><path fill="url(#i)" fill-rule="evenodd" d="M11.37 19.17v-1.26a.73.73 0 0 0-.79-.7h-2.2l-1 2Z"></path><path fill="url(#j)" fill-rule="evenodd" d="m12.87 19.17.47-3.02h6.85l.55 3.02h-7.87z"></path><path fill="url(#c)" fill-rule="evenodd" d="M17.17 17.66a.66.66 0 1 1-.66-.66.66.66 0 0 1 .66.66Z"></path><path fill="url(#k)" fill-rule="evenodd" d="M15.2 17.66a.66.66 0 1 1-.66-.66.66.66 0 0 1 .66.66Z"></path><path fill="url(#l)" fill-rule="evenodd" d="M10.29 19.16v-.45a.58.58 0 0 0-.58-.58h-.1a.58.58 0 0 0-.58.58v.45h1.26Z"></path><path fill="url(#m)" fill-rule="evenodd" d="M27 21.11v-.44a.59.59 0 0 0-.59-.59h-.09a.58.58 0 0 0-.59.59v.46H27Z"></path><path fill="url(#n)" d="M27.56 19.17h2.33v.94h-2.33z"></path><path fill="url(#o)" fill-rule="evenodd" d="M24.57 21.14v-1.26a.73.73 0 0 1 .78-.71h2.21l.94 2Z"></path><path fill="url(#p)" fill-rule="evenodd" d="M25.64 21.13v-.45a.59.59 0 0 1 .59-.58h.09a.58.58 0 0 1 .59.58v.45h-1.27Z"></path><path fill="url(#q)" fill-rule="evenodd" d="M20.34 17h-1.43a.66.66 0 1 0 0 1.31h1.67Z"></path></svg>